<svg xmlns="http://www.w3.org/2000/svg" width="1000" height="1000" viewBox="0 0 1000 1000" version="1.1"><path d="M 445.455 139.455 C 442.418 142.491, 442.267 146.799, 445.073 150.365 C 449.087 155.469, 457.320 152.991, 458.614 146.290 C 459.133 143.604, 458.738 142.584, 456.194 140.040 C 452.468 136.314, 448.795 136.114, 445.455 139.455 M 583.722 159.135 C 575.266 165.443, 576.672 178.199, 586.223 181.834 C 593.545 184.620, 600.782 180.799, 603.149 172.896 C 606.416 161.992, 592.812 152.356, 583.722 159.135 M 472.973 195.692 C 469.826 197.846, 469.241 198.697, 467.881 203.106 C 466.964 206.083, 467.075 207.356, 468.520 210.400 C 472.663 219.132, 485.940 219.173, 489.579 210.466 C 491.399 206.109, 491.367 204.575, 489.365 200.357 C 486.547 194.417, 478.275 192.063, 472.973 195.692 M 357.889 196.662 C 357.003 196.899, 355.750 198.252, 355.105 199.669 C 353.487 203.220, 355.920 207, 359.823 207 C 363.338 207, 365 205.349, 365 201.857 C 365 199.455, 361.775 195.732, 360.027 196.116 C 359.737 196.180, 358.775 196.426, 357.889 196.662 M 388.806 226.040 C 386.271 228.575, 385.871 229.603, 386.395 232.224 C 387.335 236.926, 389.711 239, 394.155 239 C 398.844 239, 402 236.217, 402 232.082 C 402 227.799, 401.091 226.099, 397.928 224.463 C 393.838 222.348, 392.218 222.628, 388.806 226.040 M 604.500 256.155 C 601.379 257.862, 599.997 260.116, 600.032 263.441 C 600.112 271.108, 608.734 274.422, 613.972 268.799 C 619.930 262.404, 612.124 251.985, 604.500 256.155 M 287.299 284.503 C 282.286 288.014, 282.286 297.986, 287.299 301.497 C 290.697 303.877, 297.398 303.422, 300.694 300.587 C 303.096 298.521, 303.500 297.428, 303.500 293 C 303.500 288.572, 303.096 287.479, 300.694 285.413 C 297.398 282.578, 290.697 282.123, 287.299 284.503 M 349.500 288.155 C 346.337 289.885, 345 292.123, 345 295.691 C 345 299.891, 348.005 303, 352.066 303 C 356.232 303, 358.502 301.617, 359.908 298.222 C 361.489 294.404, 359.971 290.553, 356.093 288.548 C 352.585 286.734, 352.145 286.708, 349.500 288.155 M 690.500 292.718 C 687.300 293.495, 682.135 297.839, 680.384 301.225 C 678.314 305.228, 678.314 312.772, 680.384 316.775 C 681.271 318.492, 683.641 321.150, 685.649 322.682 C 690.496 326.379, 698.667 326.605, 704.183 323.196 C 708.447 320.560, 712 314.037, 712 308.842 C 712 298.225, 701.193 290.120, 690.500 292.718 M 505.882 310.882 C 502.419 314.346, 502.004 315.290, 502.035 319.632 C 502.055 322.310, 502.648 325.540, 503.353 326.810 C 508.227 335.594, 522.736 334.663, 526.641 325.316 C 530.364 316.407, 523.952 307.021, 514.132 307.007 C 510.388 307.001, 509.211 307.554, 505.882 310.882 M 420.750 328.080 C 418.461 329.413, 416 334.244, 416 337.403 C 416 342.893, 420.797 348, 425.954 348 C 432.229 348, 437.610 341.299, 436.359 335.043 C 435.111 328.807, 426.272 324.864, 420.750 328.080 M 321.024 366.185 C 310.163 373.566, 310.114 387.443, 320.922 394.726 C 330.166 400.956, 343.787 394.250, 345.689 382.532 C 346.507 377.485, 343.615 370.571, 339.313 367.290 C 334.240 363.420, 325.839 362.913, 321.024 366.185 M 619.500 366.903 C 613.930 369.349, 610.764 376.703, 612.894 382.250 C 614.253 385.788, 615.271 385.713, 619.623 381.750 C 621.587 379.962, 625.512 377.227, 628.347 375.671 L 633.500 372.842 630 376.032 L 626.500 379.222 630.742 376.861 C 633.076 375.563, 634.988 374.170, 634.992 373.766 C 634.997 373.362, 633.763 371.647, 632.250 369.954 C 629.299 366.651, 623.327 365.222, 619.500 366.903 M 483.299 409.960 C 471.949 416.880, 477.020 434, 490.419 434 C 494.236 434, 495.646 433.435, 498.613 430.716 C 507.347 422.711, 501.770 408.007, 490 408.007 C 488.075 408.007, 485.059 408.886, 483.299 409.960 M 353.200 441.200 C 351.542 442.858, 351.696 446.503, 353.487 447.989 C 355.529 449.684, 359.721 448.455, 360.523 445.926 C 361.786 441.947, 356.114 438.286, 353.200 441.200 M 401.500 465.954 C 396.301 468.104, 392.387 476.377, 393.966 481.880 C 396.089 489.284, 400.728 492.990, 407.882 492.996 C 422.105 493.008, 427.325 474.787, 415.359 466.898 C 412.363 464.923, 405.177 464.433, 401.500 465.954 M 54 598.586 C 41.258 602.519, 29.028 612.386, 23.740 623 C 20.019 630.470, 18 642.163, 18 656.250 L 18 668 11.500 668 L 5 668 5 684.893 C 5 703.928, 4.586 703, 13.082 703 L 18 703 18 741.393 C 18 775.480, 18.177 779.854, 19.582 780.393 C 21.952 781.303, 55.303 781.095, 56.774 780.161 C 57.777 779.524, 57.989 771.244, 57.774 741.176 L 57.500 702.999 68.500 702.986 C 85.586 702.965, 84.096 704.707, 83.774 685.127 L 83.500 668.500 70.614 668 L 57.729 667.500 57.897 657 C 58.175 639.595, 59.469 635.873, 65.792 634.299 C 69.628 633.344, 75.867 634.164, 79.655 636.122 C 80.840 636.735, 82.302 636.931, 82.905 636.559 C 84.547 635.544, 84.402 602.561, 82.750 601.264 C 77.698 597.301, 62.695 595.903, 54 598.586 M 984.354 599.692 C 979.814 600.580, 978.722 603.231, 979.409 611.702 C 979.757 615.991, 980.303 628.050, 980.622 638.500 L 981.203 657.500 971.352 657.500 C 963.780 657.500, 960.574 657.936, 957.500 659.386 C 939.196 668.015, 928.543 687.015, 923.512 720 C 921.873 730.747, 921.553 753.700, 922.925 762.075 C 924.047 768.927, 928.382 776.352, 932.578 778.612 C 936.608 780.782, 946.009 780.073, 951.572 777.179 C 960.339 772.618, 973.376 759.312, 978.477 749.718 C 979.565 747.673, 980.690 746, 980.977 745.999 C 981.265 745.998, 981.365 755.336, 981.200 766.749 C 980.860 790.306, 981.135 791.400, 987.397 791.400 C 994.653 791.400, 994.149 798.754, 994.036 694.434 C 993.957 621.897, 993.657 600.401, 992.717 599.804 C 991.460 599.005, 988.096 598.960, 984.354 599.692 M 810.655 603.829 C 808.596 606.104, 808.547 609.224, 810.510 613.020 C 813.212 618.244, 818.461 619.539, 822.117 615.883 C 823.829 614.171, 824.139 612.928, 823.740 609.384 C 823.468 606.973, 822.685 604.326, 822 603.501 C 820.187 601.315, 812.735 601.531, 810.655 603.829 M 404.416 627.487 C 394.856 630.506, 387.243 637.112, 383.096 645.988 C 380.900 650.688, 380.519 652.899, 380.510 661 C 380.498 672.097, 381.842 675.120, 391.533 685.793 C 394.675 689.255, 397.078 692.209, 396.873 692.358 C 396.668 692.508, 392.602 695.190, 387.839 698.319 C 370.440 709.749, 362.024 723.663, 362.024 741 C 362.024 753.597, 366.034 763.017, 374.948 771.354 C 392.363 787.645, 425.299 787.514, 445.617 771.074 L 451.730 766.128 455.102 773.064 C 456.956 776.879, 458.929 780, 459.486 780 C 460.043 780, 469.678 780.126, 480.898 780.280 C 497.484 780.508, 501.563 780.294, 502.720 779.137 C 505.174 776.683, 502.255 775.286, 491 773.526 C 479.161 771.675, 477.274 770.499, 473 762.301 C 471.625 759.663, 469.488 755.826, 468.250 753.773 C 465.853 749.797, 465.412 746.996, 466.938 745.450 C 468.708 743.657, 474.742 730.497, 477.232 723 C 479.776 715.340, 482.414 705.181, 483.436 699.108 C 484.255 694.242, 486.404 693.069, 494.559 693.032 C 502.707 692.995, 506.334 691.312, 504.090 688.608 C 502.930 687.211, 499.556 687, 478.378 687 L 454 687 454 689.383 C 454 692.379, 456.026 692.968, 466.395 692.986 L 474.291 693 473.691 702.750 C 473.154 711.479, 471.655 718.649, 469.144 724.500 C 465.833 732.218, 461.519 741, 461.041 741 C 460.726 741, 458.932 738.638, 457.055 735.750 C 450.983 726.410, 430.142 699.331, 423.310 691.905 L 420.922 689.309 427.705 685.405 C 435.623 680.846, 443.004 673.895, 445.774 668.389 C 454.005 652.022, 445.031 632.930, 426.585 627.568 C 420.215 625.716, 410.142 625.679, 404.416 627.487 M 405.366 633.919 C 403.642 634.970, 400.942 637.520, 399.366 639.587 C 396.829 642.913, 396.500 644.164, 396.500 650.495 C 396.500 656.310, 397.014 658.662, 399.249 663.086 C 402.043 668.613, 412.654 681.209, 416.046 683.025 C 418.587 684.384, 423.668 679.860, 427.507 672.819 C 430.123 668.021, 430.410 666.566, 430.437 657.973 C 430.463 649.369, 430.177 647.867, 427.483 642.473 C 423.787 635.072, 419.565 631.998, 413.102 632.004 C 410.337 632.006, 407.249 632.770, 405.366 633.919 M 245.527 635.956 C 245.187 636.506, 244.976 643.828, 245.058 652.228 L 245.206 667.500 239.103 667.798 L 233 668.095 233 684.941 C 233 703.866, 232.625 703, 240.832 703 L 245.500 702.999 245.226 740.618 C 245.028 767.790, 245.271 778.621, 246.099 779.619 C 246.993 780.696, 251.048 781, 264.541 781 C 274.053 781, 282.548 780.727, 283.418 780.393 C 284.823 779.854, 285 775.480, 285 741.393 L 285 703 293.918 703 C 298.823 703, 303.548 702.727, 304.418 702.393 C 305.774 701.873, 306 699.375, 306 684.893 L 306 668 295.525 668 L 285.050 668 284.775 651.750 L 284.500 635.500 265.322 635.229 C 253.330 635.059, 245.913 635.332, 245.527 635.956 M 573.445 649.031 C 572.356 649.434, 570.845 650.921, 570.088 652.336 C 568.597 655.121, 568.783 658.137, 571.513 675.500 C 573.205 686.262, 575.227 700.249, 577.511 717 C 578.299 722.775, 579.647 732.450, 580.508 738.500 C 581.369 744.550, 582.492 752.875, 583.003 757 C 585.700 778.746, 587.009 782, 593.055 782 C 597.961 782, 600.483 778.474, 603.425 767.500 C 604.899 762, 606.748 755.250, 607.533 752.500 C 612.157 736.310, 620.297 704.774, 623.525 690.546 L 625.330 682.591 627.038 688.046 C 627.977 691.046, 629.888 697.550, 631.286 702.500 C 632.683 707.450, 635.944 718.700, 638.532 727.500 C 641.120 736.300, 643.603 744.850, 644.050 746.500 C 644.496 748.150, 645.523 751.750, 646.332 754.500 C 647.141 757.250, 648.995 763.550, 650.452 768.500 C 652.176 774.359, 653.869 778.103, 655.300 779.228 C 658.574 781.799, 664.275 781.481, 667.780 778.532 C 671.134 775.710, 672.404 770.784, 673.976 754.500 C 674.507 749, 675.608 739.100, 676.422 732.500 C 677.236 725.900, 678.601 714.650, 679.456 707.500 C 680.311 700.350, 681.705 689.325, 682.552 683 C 683.400 676.675, 684.341 668.125, 684.643 664 C 685.137 657.245, 684.955 656.152, 682.811 653 C 679.108 647.554, 674.117 647.931, 671.875 653.828 C 671.371 655.153, 670.537 660.122, 670.021 664.869 C 669.505 669.616, 668.382 679.800, 667.525 687.500 C 665.516 705.554, 663.117 727.473, 661.560 742 C 660.882 748.325, 660.076 752.825, 659.768 752 C 659.461 751.175, 658.451 747.800, 657.525 744.500 C 656.598 741.200, 655.462 737.375, 655 736 C 654.538 734.625, 653.472 731.025, 652.631 728 C 649.365 716.249, 646.815 707.394, 646.008 705 C 645.545 703.625, 643.050 695.075, 640.464 686 C 633.699 662.257, 632.834 659.966, 629.785 657.689 C 627.360 655.878, 626.640 655.791, 623.031 656.872 C 618.703 658.169, 616.286 660.982, 614.993 666.227 C 614.174 669.549, 612.330 676.478, 607.470 694.500 C 603.213 710.284, 601.948 715.114, 600.528 721 C 596.717 736.794, 594.025 745.613, 593.990 742.417 C 593.976 741.164, 591.369 719.141, 589.501 704.500 C 588.659 697.900, 587.553 689.125, 587.045 685 C 583.627 657.300, 582.945 653.570, 580.894 651.387 C 578.429 648.763, 576.133 648.037, 573.445 649.031 M 812.945 649.566 C 811.882 650.847, 811.863 659.269, 812.843 695.816 C 813.501 720.392, 814.031 748.195, 814.020 757.601 C 814.009 767.020, 814.472 776.054, 815.050 777.713 C 816.343 781.421, 820.032 783.318, 823.435 782.025 C 827.166 780.606, 828.283 777.564, 827.625 770.623 C 827.305 767.256, 826.793 741.100, 826.488 712.500 C 825.932 660.493, 825.620 653.028, 823.866 649.750 C 822.632 647.444, 814.815 647.312, 812.945 649.566 M 850.250 650.989 L 847 652.971 847.011 663.735 C 847.018 669.656, 847.475 697.428, 848.027 725.452 C 849.015 775.595, 849.065 776.440, 851.190 778.702 C 853.732 781.408, 858.496 781.742, 861.777 779.443 C 863.965 777.911, 864 777.524, 864.006 754.693 C 864.014 722.606, 866.098 709.436, 873.372 695.513 C 881.619 679.728, 899.865 669.032, 918.593 669.006 C 922.247 669.001, 922.888 668.623, 924.584 665.475 C 926.318 662.253, 926.351 661.716, 924.961 659.239 C 922.410 654.695, 919.566 653.828, 909 654.376 C 895.736 655.063, 886.008 659.343, 876.585 668.638 C 871.816 673.343, 864.778 684.063, 862.890 689.500 C 861.593 693.231, 861.463 692.122, 860.948 673 C 860.644 661.725, 860.306 652.399, 860.198 652.276 C 859.905 651.943, 854.149 648.999, 853.800 649.004 C 853.635 649.006, 852.038 649.899, 850.250 650.989 M 727.907 654.486 C 720.760 658.209, 717.274 662.773, 711.856 675.500 C 710.741 678.119, 708.898 690.442, 708.119 700.489 L 707.500 708.479 703 710.619 C 691.556 716.063, 692.797 723.336, 705.434 724.884 C 711.085 725.576, 710.316 724.038, 712.995 740 C 715.091 752.481, 720.466 765.287, 726.374 771.870 C 731.349 777.415, 735.890 779.273, 745.718 779.787 C 752.989 780.167, 755.979 779.898, 759.528 778.543 C 775.505 772.441, 790.872 748.753, 792.642 727.500 C 793.158 721.302, 792.974 720.185, 791.040 717.750 C 787.540 713.345, 782 714.532, 782 719.686 C 782 722.283, 780.592 728.500, 777.837 738.068 C 774.038 751.265, 766.151 761.183, 756.684 764.674 C 752.510 766.213, 742.769 766.308, 739.549 764.840 C 734.883 762.714, 729.999 753.154, 727.115 740.500 C 725.674 734.178, 722.861 716.797, 723.226 716.469 C 723.851 715.908, 739.195 707, 739.536 707 C 740.401 707, 760.920 694.314, 765.500 690.947 C 774.711 684.176, 776.270 682.093, 775.541 677.531 C 774.027 668.063, 764.698 658.701, 751.628 653.531 C 745.437 651.083, 733.518 651.563, 727.907 654.486 M 136 665.430 C 121.212 668.723, 107.335 680.207, 100.149 695.101 C 94.575 706.653, 92.077 721.506, 93.912 732.191 C 95.422 740.990, 98.533 751.093, 101.226 755.945 C 111.068 773.677, 127.887 783.976, 147 783.976 C 159.035 783.976, 165.380 781.822, 174.195 774.744 L 178.889 770.974 179.195 775.737 L 179.500 780.500 198.500 780.500 L 217.500 780.500 217.758 724.250 L 218.017 668 198.508 668 L 179 668 179 672.604 L 179 677.207 175.472 674.110 C 165.782 665.601, 150.409 662.221, 136 665.430 M 730.956 669.926 C 728.495 672.512, 726.542 676.009, 725.228 680.176 C 723.049 687.092, 721.502 699.574, 722.731 700.334 C 723.625 700.886, 761.348 678.455, 761.799 677.102 C 762.210 675.870, 752.564 667.658, 749.758 666.850 C 748.516 666.492, 744.618 666.155, 741.095 666.100 C 734.892 666.003, 734.573 666.124, 730.956 669.926 M 964.500 673.389 C 951.477 679.078, 939.261 703.739, 935.941 731.044 C 934.493 742.959, 935.452 755.501, 938.208 760.670 C 941.637 767.099, 943.495 767.432, 950.404 762.856 C 961.615 755.430, 975.534 730.058, 980.091 708.743 C 981.976 699.923, 978.933 677.076, 975.402 673.545 C 973.533 671.676, 968.584 671.605, 964.500 673.389 M 394.442 703.250 C 391.834 706.138, 388.547 710.975, 387.138 714 C 384.848 718.919, 384.573 720.768, 384.538 731.500 C 384.494 745.377, 386.105 751.566, 391.988 760.112 C 403.528 776.876, 426.525 778.259, 443.822 763.230 L 448.115 759.500 441.207 749 C 429.303 730.905, 403.088 698, 400.576 698 C 399.811 698, 397.051 700.362, 394.442 703.250 M 155.500 700.565 C 154.950 700.714, 152.864 701.109, 150.864 701.442 C 145.386 702.355, 138.571 708.858, 136.060 715.570 C 133.547 722.285, 133.501 724.728, 135.748 731.912 C 138.143 739.567, 143.848 745.233, 151.363 747.417 C 156.486 748.906, 157.482 748.916, 162.281 747.521 C 175.776 743.598, 182.802 730.318, 178.545 716.782 C 176.711 710.951, 172.062 705.097, 167.392 702.737 C 164.573 701.312, 157.504 700.021, 155.500 700.565 M 586 813.762 C 584.075 814.641, 580.255 815.617, 577.510 815.930 C 573.834 816.350, 572.433 816.961, 572.187 818.250 C 571.920 819.648, 572.560 820, 575.368 820 C 577.301 820, 579.149 820.432, 579.476 820.961 C 579.900 821.647, 580.323 886.500, 580.017 904 C 580.008 904.550, 578.200 905, 576 905 C 572.667 905, 572 905.333, 572 907 C 572 908.911, 572.667 909, 587 909 C 601.185 909, 602 908.895, 602 907.057 C 602 905.487, 601.186 905.056, 597.750 904.807 L 593.500 904.500 593.271 891.500 L 593.041 878.500 596.129 882 C 604.685 891.697, 614 903.184, 614 904.038 C 614 904.567, 612.200 905, 610 905 C 606.667 905, 606 905.333, 606 907 C 606 908.922, 606.667 909, 623 909 C 639.333 909, 640 908.922, 640 907 C 640 905.361, 639.323 904.994, 636.250 904.968 C 631.537 904.928, 631.353 904.776, 619.896 891.500 C 614.675 885.450, 608.518 878.475, 606.214 876 C 603.910 873.525, 602.019 871.229, 602.012 870.897 C 602.006 870.565, 606.230 866.202, 611.400 861.200 L 620.801 852.106 626.650 851.803 C 631.049 851.575, 632.500 851.128, 632.500 850 C 632.500 848.733, 630.168 848.500, 617.514 848.500 C 604.036 848.500, 602.493 848.676, 602.190 850.250 C 601.902 851.748, 602.657 852, 607.427 852 C 610.492 852, 613 852.372, 613 852.826 C 613 853.280, 608.500 857.814, 603 862.901 L 593 872.151 593 842.076 C 593 808.486, 593.462 810.353, 586 813.762 M 755.753 817.390 C 754.793 818.119, 753.720 820.149, 753.370 821.901 C 752.869 824.407, 753.225 825.611, 755.041 827.543 C 759.497 832.287, 767 829.437, 767 823 C 767 817.320, 760.269 813.962, 755.753 817.390 M 83.554 847.727 C 80.368 848.538, 73.699 853.019, 70.691 856.370 C 63.853 863.988, 60.859 875.482, 62.936 886.138 C 65.876 901.219, 75.915 909.970, 90.300 909.990 C 97.921 910.001, 101.049 908.757, 107.060 903.327 C 109.549 901.078, 111 898.890, 111 897.384 C 111 894.033, 108.521 894.373, 105.780 898.100 C 100.920 904.708, 92.002 906.793, 85.898 902.749 C 74.231 895.018, 72.776 863.527, 83.621 853.475 C 87.220 850.140, 96.675 849.879, 99.533 853.036 C 101.123 854.794, 101.213 855.522, 100.188 858.357 C 98.443 863.183, 98.699 864.618, 101.734 867.006 C 106.783 870.977, 112.903 867.860, 112.968 861.285 C 113.009 857.157, 108.279 851.633, 102.419 848.963 C 98.268 847.072, 88.615 846.440, 83.554 847.727 M 246.791 847.988 C 243.949 848.845, 238.730 852.270, 235.798 855.202 C 232.116 858.884, 228.985 865.170, 227.432 871.998 C 225.928 878.613, 225.933 879.607, 227.511 886.044 C 229.698 894.970, 233.932 901.270, 240.817 905.843 C 245.933 909.242, 246.941 909.525, 255.097 909.847 C 263.194 910.167, 264.278 909.974, 269.109 907.347 C 274.886 904.206, 281.106 897.091, 283.168 891.264 C 283.933 889.103, 284.485 883.455, 284.465 878 C 284.436 870.116, 284.046 867.769, 282.172 864.205 C 276.253 852.949, 267.101 846.966, 256 847.096 C 252.425 847.138, 248.281 847.539, 246.791 847.988 M 421.542 847.729 C 416.024 849.131, 407.782 856.648, 404.250 863.500 C 400.798 870.197, 400.004 881.649, 402.468 889.215 C 404.700 896.070, 409.843 902.757, 415.768 906.508 C 419.902 909.125, 421.583 909.543, 429.183 909.847 C 437.168 910.166, 438.292 909.966, 443.050 907.376 C 453.090 901.912, 459 891.449, 459 879.138 C 459 865.415, 452.696 854.699, 441.500 849.390 C 436.634 847.083, 427.183 846.296, 421.542 847.729 M 760.654 848.622 C 759.089 849.470, 755.337 850.419, 752.316 850.731 C 748.850 851.089, 746.617 851.834, 746.266 852.750 C 745.493 854.764, 747.962 856.153, 751.250 855.552 L 754 855.050 754 879.965 L 754 904.879 750.250 905.190 C 747.376 905.427, 746.500 905.933, 746.500 907.355 C 746.500 909.076, 747.579 909.213, 761.500 909.265 C 775.618 909.317, 776.500 909.208, 776.500 907.410 C 776.500 905.878, 775.659 905.439, 772.250 905.193 L 768 904.885 767.986 878.193 C 767.979 863.512, 767.701 850.487, 767.370 849.250 C 766.670 846.641, 764.658 846.452, 760.654 848.622 M 907.381 849.006 C 891.413 856.497, 885.132 878.765, 894.232 895.620 C 896.682 900.157, 905.590 907.797, 909.955 909.105 C 912.026 909.725, 917.087 910.063, 921.203 909.855 C 927.555 909.534, 929.249 909.048, 932.411 906.635 C 936.893 903.217, 942 896.408, 942 893.850 C 942 890.577, 938.503 891.761, 936.231 895.802 C 933.539 900.593, 931.458 902.416, 926.809 904.057 C 923.735 905.141, 922.408 905.125, 918.872 903.958 C 908.843 900.648, 904.863 893.667, 904.643 879 L 904.500 869.500 922.790 869.227 C 943.509 868.918, 943.404 868.964, 940.535 861.453 C 938.478 856.066, 933.972 851.347, 928.522 848.871 C 923.040 846.381, 912.837 846.446, 907.381 849.006 M 248.013 854.866 C 238.682 864.674, 238.672 892.315, 247.996 902.116 C 251.323 905.614, 252.186 906, 256.671 906 C 263.774 906, 266.391 902.949, 269.389 891.169 C 271.168 884.179, 271.509 872.898, 270.077 868.399 C 269.570 866.805, 268.877 863.826, 268.537 861.779 C 268.166 859.538, 266.596 856.654, 264.592 854.529 C 261.684 851.445, 260.660 851, 256.477 851 C 252.221 851, 251.283 851.429, 248.013 854.866 M 423.607 853.095 C 417.148 858.175, 414.014 872, 415.977 886.749 C 417.749 900.068, 422.447 906, 431.223 906 C 437.107 906, 438.949 904.358, 442.033 896.365 C 443.922 891.470, 444.302 888.515, 444.331 878.500 C 444.371 864.482, 442.544 857.477, 437.805 853.489 C 433.964 850.258, 427.444 850.076, 423.607 853.095 M 911.534 853.152 C 909.369 854.855, 905 862.498, 905 864.583 C 905 864.812, 910.400 865, 917 865 C 923.600 865, 929 864.630, 929 864.178 C 929 861.491, 925.475 853.746, 923.679 852.488 C 920.562 850.305, 914.750 850.622, 911.534 853.152" stroke="none" fill="#343433" fill-rule="evenodd"/><path d="M 481 92.058 C 461.306 93.649, 430.424 100.401, 419.349 105.538 C 417.616 106.342, 415.697 107, 415.085 107 C 414.473 107, 413.191 107.434, 412.236 107.965 C 411.281 108.496, 408.250 109.863, 405.500 111.003 C 376.432 123.053, 343.508 146.885, 322.135 171.346 C 287.293 211.222, 267.795 255.407, 262.492 306.500 C 256.144 367.676, 273.035 427.601, 310.606 477.194 C 320.463 490.206, 342.580 512.333, 355.088 521.697 C 380.463 540.695, 407.692 554.260, 436.980 562.494 C 447.647 565.493, 448.440 565.551, 447.495 563.250 C 446.126 559.919, 443.052 534.466, 443.026 526.243 C 442.995 516.294, 445.344 499.870, 448.054 491.091 C 454.787 469.286, 468.697 454.531, 489 447.659 C 497.529 444.773, 499.961 444.298, 512.500 443.079 C 520.783 442.273, 525.049 442.460, 545.750 444.533 C 552.795 445.238, 553 445.196, 553 443.033 C 553 434.810, 559.654 422.373, 565.615 419.453 C 570.355 417.132, 580.553 417.016, 586.673 419.214 C 591.362 420.898, 591.891 420.706, 594.002 416.548 C 597.310 410.029, 607.268 397.253, 615.575 388.869 C 620.407 383.991, 624.705 380, 625.125 380 C 625.545 380, 627.601 378.368, 629.694 376.374 L 633.500 372.748 628.347 375.624 C 625.512 377.206, 621.546 380, 619.533 381.832 C 615.344 385.646, 613.476 385.442, 612.515 381.068 C 611.519 376.535, 612.719 372.644, 616.114 369.391 C 618.627 366.983, 619.975 366.500, 624.180 366.500 C 628.747 366.500, 629.530 366.849, 632.385 370.151 L 635.541 373.802 639.187 372.028 C 643.915 369.728, 656.056 367, 661.561 367 C 672.444 367, 686.733 372.069, 698.680 380.167 C 703.763 383.612, 704.691 383.663, 707.079 380.627 C 711.685 374.772, 722.096 373.281, 730.083 377.334 C 732.749 378.687, 734.731 379.208, 734.820 378.580 C 734.904 377.986, 735.857 372.100, 736.936 365.500 C 739.473 349.986, 739.762 315.124, 737.481 299.743 C 729.594 246.570, 708.218 202.264, 672.524 165.106 C 622.474 113.005, 552.430 86.289, 481 92.058 M 445.455 139.455 C 442.418 142.491, 442.267 146.799, 445.073 150.365 C 449.087 155.469, 457.320 152.991, 458.614 146.290 C 459.133 143.604, 458.738 142.584, 456.194 140.040 C 452.468 136.314, 448.795 136.114, 445.455 139.455 M 583.722 159.135 C 575.266 165.443, 576.672 178.199, 586.223 181.834 C 593.545 184.620, 600.782 180.799, 603.149 172.896 C 606.416 161.992, 592.812 152.356, 583.722 159.135 M 472.973 195.692 C 469.826 197.846, 469.241 198.697, 467.881 203.106 C 466.964 206.083, 467.075 207.356, 468.520 210.400 C 472.663 219.132, 485.940 219.173, 489.579 210.466 C 491.399 206.109, 491.367 204.575, 489.365 200.357 C 486.547 194.417, 478.275 192.063, 472.973 195.692 M 357.889 196.662 C 357.003 196.899, 355.750 198.252, 355.105 199.669 C 353.487 203.220, 355.920 207, 359.823 207 C 363.338 207, 365 205.349, 365 201.857 C 365 199.455, 361.775 195.732, 360.027 196.116 C 359.737 196.180, 358.775 196.426, 357.889 196.662 M 388.806 226.040 C 386.271 228.575, 385.871 229.603, 386.395 232.224 C 387.335 236.926, 389.711 239, 394.155 239 C 398.844 239, 402 236.217, 402 232.082 C 402 227.799, 401.091 226.099, 397.928 224.463 C 393.838 222.348, 392.218 222.628, 388.806 226.040 M 604.500 256.155 C 601.379 257.862, 599.997 260.116, 600.032 263.441 C 600.112 271.108, 608.734 274.422, 613.972 268.799 C 619.930 262.404, 612.124 251.985, 604.500 256.155 M 287.299 284.503 C 282.286 288.014, 282.286 297.986, 287.299 301.497 C 290.697 303.877, 297.398 303.422, 300.694 300.587 C 303.096 298.521, 303.500 297.428, 303.500 293 C 303.500 288.572, 303.096 287.479, 300.694 285.413 C 297.398 282.578, 290.697 282.123, 287.299 284.503 M 349.500 288.155 C 346.337 289.885, 345 292.123, 345 295.691 C 345 299.891, 348.005 303, 352.066 303 C 356.232 303, 358.502 301.617, 359.908 298.222 C 361.489 294.404, 359.971 290.553, 356.093 288.548 C 352.585 286.734, 352.145 286.708, 349.500 288.155 M 690.500 292.718 C 687.300 293.495, 682.135 297.839, 680.384 301.225 C 678.314 305.228, 678.314 312.772, 680.384 316.775 C 681.271 318.492, 683.641 321.150, 685.649 322.682 C 690.496 326.379, 698.667 326.605, 704.183 323.196 C 708.447 320.560, 712 314.037, 712 308.842 C 712 298.225, 701.193 290.120, 690.500 292.718 M 505.882 310.882 C 502.419 314.346, 502.004 315.290, 502.035 319.632 C 502.055 322.310, 502.648 325.540, 503.353 326.810 C 508.227 335.594, 522.736 334.663, 526.641 325.316 C 530.364 316.407, 523.952 307.021, 514.132 307.007 C 510.388 307.001, 509.211 307.554, 505.882 310.882 M 420.750 328.080 C 418.461 329.413, 416 334.244, 416 337.403 C 416 342.893, 420.797 348, 425.954 348 C 432.229 348, 437.610 341.299, 436.359 335.043 C 435.111 328.807, 426.272 324.864, 420.750 328.080 M 321.024 366.185 C 310.163 373.566, 310.114 387.443, 320.922 394.726 C 330.166 400.956, 343.787 394.250, 345.689 382.532 C 346.507 377.485, 343.615 370.571, 339.313 367.290 C 334.240 363.420, 325.839 362.913, 321.024 366.185 M 483.299 409.960 C 471.949 416.880, 477.020 434, 490.419 434 C 494.236 434, 495.646 433.435, 498.613 430.716 C 507.347 422.711, 501.770 408.007, 490 408.007 C 488.075 408.007, 485.059 408.886, 483.299 409.960 M 668.722 414.011 C 666.472 416.640, 666.524 421.260, 668.829 423.345 C 670.997 425.308, 678.280 425.573, 679.797 423.744 C 683.868 418.839, 680.580 412, 674.150 412 C 671.675 412, 669.873 412.668, 668.722 414.011 M 353.200 441.200 C 351.542 442.858, 351.696 446.503, 353.487 447.989 C 355.529 449.684, 359.721 448.455, 360.523 445.926 C 361.786 441.947, 356.114 438.286, 353.200 441.200 M 680.357 446.992 C 676.958 448.363, 675 452.034, 675 457.035 C 675 460.852, 675.517 462.121, 678.066 464.563 C 680.533 466.926, 682.014 467.500, 685.648 467.500 C 689.485 467.500, 690.603 467.009, 693.082 464.234 C 695.365 461.679, 696 460.015, 696 456.588 C 696 452.825, 695.501 451.769, 692.465 449.104 C 688.815 445.899, 684.801 445.198, 680.357 446.992 M 611 463.672 C 607.458 465.062, 606 467.369, 606 471.582 C 606 475.007, 606.523 476.266, 608.635 477.927 C 612.415 480.901, 616.561 480.593, 620.077 477.077 C 623.598 473.555, 623.823 470.047, 620.750 466.555 C 618.482 463.977, 613.772 462.585, 611 463.672 M 401.500 465.954 C 396.301 468.104, 392.387 476.377, 393.966 481.880 C 396.089 489.284, 400.728 492.990, 407.882 492.996 C 422.105 493.008, 427.325 474.787, 415.359 466.898 C 412.363 464.923, 405.177 464.433, 401.500 465.954 M 472.844 490.255 C 466.987 495.206, 466.685 501.874, 472.111 506.440 C 476.440 510.082, 481.912 509.944, 486.234 506.082 C 489.043 503.572, 489.500 502.508, 489.500 498.472 C 489.500 494.344, 489.085 493.434, 486.038 490.890 C 481.703 487.272, 476.660 487.029, 472.844 490.255 M 531.055 492.657 C 527.641 496.997, 530.075 502, 535.599 502 C 541.526 502, 543.849 494.899, 539.104 491.286 C 536.476 489.284, 533.280 489.828, 531.055 492.657 M 653.619 499.869 C 651.233 502.505, 651.891 505.847, 655.296 508.379 C 657.853 510.281, 658.314 510.332, 660.691 508.979 C 664.027 507.081, 665.164 503.965, 663.641 500.895 C 662.035 497.656, 656.165 497.055, 653.619 499.869 M 612.500 535.278 C 608.166 536.682, 604.120 540.845, 603.409 544.632 C 602.171 551.230, 608.610 558.792, 615.602 558.952 C 618.868 559.027, 624.309 554.862, 626.330 550.743 C 627.842 547.658, 627.967 546.430, 627.050 543.653 C 624.975 537.365, 618.162 533.444, 612.500 535.278 M 507.589 560.077 C 504.227 564.072, 504.160 568.911, 507.413 572.694 C 510.690 576.503, 517.572 576.690, 521.419 573.076 C 525.068 569.648, 525.042 563.315, 521.364 559.636 C 517.422 555.695, 511.106 555.897, 507.589 560.077" stroke="none" fill="#c88039" fill-rule="evenodd"/></svg>